<svg xmlns="http://www.w3.org/2000/svg" width="100" height="100" viewBox="1496.773 1300.492 100 100"><path fill="#353131" d="M1497.94 1333.994c9.188 1.677 15.981 7.584 15.981 14.617 0 1.438-.285 2.832-.815 4.15a72.742 72.742 0 0 1 2.614-.045c16.799 0 30.481 7.133 31.053 14.273.574-7.14 14.262-14.273 31.059-14.273.878 0 1.743.014 2.603.045a11.073 11.073 0 0 1-.81-4.15c0-7.034 6.79-12.942 15.981-14.617h-32.852c0 2.46-1.979 7.28-4.439 7.28h-8.435l-.438-3.54h-.006v-3.08l-1.248 3.08h-2.836l-1.248-3.08v3.08l-.438 3.54h-8.436c-2.459 0-4.439-4.82-4.439-7.28h-32.851z"/></svg>